<svg width="29" height="22" viewBox="0 0 29 22" fill="none" xmlns="http://www.w3.org/2000/svg">
<path d="M8.75829 6.1224L3.66914 8.54122L6.9665 13.1104C7.07634 13.26 7.15548 13.4299 7.19934 13.6103C7.24321 13.7906 7.25093 13.9779 7.22207 14.1613C7.1932 14.3446 7.12833 14.5205 7.03117 14.6786C6.93402 14.8368 6.80652 14.9741 6.65602 15.0828C6.50552 15.1914 6.335 15.2692 6.1543 15.3116C5.97359 15.354 5.78628 15.3603 5.60316 15.3299C5.42003 15.2996 5.24473 15.2333 5.08734 15.1349C4.92996 15.0365 4.79362 14.9079 4.68618 14.7566L0.401701 8.81884C0.28102 8.65165 0.198581 8.45997 0.160224 8.25738C0.121867 8.05479 0.128531 7.84624 0.179744 7.6465C0.230957 7.44677 0.325465 7.26075 0.456574 7.10161C0.587683 6.94247 0.752184 6.8141 0.938423 6.72562L7.55141 3.58211C7.88779 3.42558 8.2724 3.40833 8.62144 3.53411C8.97048 3.65989 9.25567 3.91851 9.41489 4.25362C9.5741 4.58874 9.59442 4.97319 9.47144 5.32323C9.34845 5.67327 9.09212 5.96052 8.75829 6.1224ZM28.1095 13.6925L23.825 7.75479C23.7175 7.60343 23.5812 7.47483 23.4238 7.37642C23.2664 7.27801 23.0911 7.21173 22.908 7.1814C22.7249 7.15107 22.5376 7.1573 22.3569 7.19972C22.1762 7.24214 22.0056 7.31992 21.8551 7.42856C21.7046 7.5372 21.5771 7.67457 21.48 7.83273C21.3828 7.99089 21.318 8.16673 21.2891 8.35008C21.2602 8.53344 21.2679 8.7207 21.3118 8.90106C21.3557 9.08142 21.4348 9.25132 21.5447 9.40094L24.842 13.9701L19.7529 16.3889C19.5846 16.4673 19.4335 16.5781 19.3082 16.7151C19.183 16.8521 19.0861 17.0126 19.0232 17.1872C18.9603 17.3618 18.9325 17.5472 18.9416 17.7326C18.9506 17.9179 18.9963 18.0997 19.076 18.2674C19.1556 18.435 19.2677 18.5853 19.4057 18.7094C19.5437 18.8335 19.7049 18.9291 19.88 18.9907C20.0551 19.0522 20.2407 19.0784 20.426 19.0679C20.6113 19.0574 20.7927 19.0102 20.9597 18.9292L27.5727 15.7857C27.759 15.6972 27.9235 15.5689 28.0546 15.4097C28.1857 15.2506 28.2802 15.0646 28.3314 14.8648C28.3826 14.6651 28.3893 14.4566 28.3509 14.254C28.3126 14.0514 28.2301 13.8597 28.1095 13.6925ZM21.2432 1.03661C21.0907 0.932347 20.9192 0.859141 20.7384 0.821175C20.5576 0.78321 20.3712 0.781229 20.1896 0.815345C20.0081 0.849462 19.8351 0.919007 19.6804 1.02001C19.5258 1.12101 19.3925 1.25149 19.2883 1.404L6.90061 19.5199C6.69043 19.8278 6.61109 20.2065 6.68003 20.5729C6.74898 20.9392 6.96056 21.2632 7.26829 21.4736C7.40317 21.5668 7.55357 21.6353 7.71245 21.6758C7.99211 21.7476 8.28709 21.7315 8.55731 21.6298C8.82753 21.5281 9.05989 21.3457 9.22284 21.1074L21.6105 2.99146C21.7148 2.83899 21.788 2.66747 21.826 2.48671C21.8639 2.30594 21.8659 2.11946 21.8318 1.93793C21.7977 1.7564 21.7281 1.58336 21.6271 1.42871C21.5261 1.27406 21.3957 1.14083 21.2432 1.03661Z" fill="white"/>
</svg>
